# xmcd
#
# Track frame offsets:
#	150
#	5160
#	24901
#	43919
#	63647
#	79878
#	99817
#	123825
#	140988
#	162755
#	180937
#
# Disc length: 2699 seconds
#
# Revision: 4
# Processed by: cddbd v1.5.1PL2 Copyright (c) Steve Scherf et al.
# Submitted via: Jack! The Knife
#
DISCID=8a0a890b
DTITLE=Ligabue - Nome e cognome
DYEAR=2005
DGENRE=Rock
TTITLE0=Intro
TTITLE1=Il Giorno Dei Giorni
TTITLE2=Happy hour
TTITLE3=L'amore conta
TTITLE4=Cosa vuoi che sia
TTITLE5=Le donne lo sanno
TTITLE6=Lettera a G
TTITLE7=Vivere a orecchio
TTITLE8=Giorno per giorno
TTITLE9=E' più forte di me
TTITLE10=Sono qui per l'amore
EXTD=YEAR: 2005
EXTT0=
EXTT1=
EXTT2=
EXTT3=
EXTT4=
EXTT5=
EXTT6=
EXTT7=
EXTT8=
EXTT9=
EXTT10=
PLAYORDER=
